<mxfile host="app.diagrams.net" modified="2021-09-20T13:32:18.457Z" agent="5.0 (Macintosh; Intel Mac OS X 10_15_7) AppleWebKit/537.36 (KHTML, like Gecko) Chrome/93.0.4577.82 Safari/537.36 Edg/93.0.961.52" etag="tutvbPQlAppQeoJRehLP" version="15.2.9" type="github">
  <diagram id="3WOyFUzZQj87OX-mHXad" name="第 1 页">
    <mxGraphModel dx="2125" dy="2035" grid="1" gridSize="10" guides="1" tooltips="1" connect="1" arrows="1" fold="1" page="1" pageScale="1" pageWidth="827" pageHeight="1169" math="0" shadow="0">
      <root>
        <mxCell id="0" />
        <mxCell id="1" parent="0" />
        <mxCell id="88MglTr5YMNK4hl9KZ-t-9" value="" style="rounded=0;whiteSpace=wrap;html=1;fillColor=#dae8fc;strokeColor=none;" vertex="1" parent="1">
          <mxGeometry x="-80" y="45" width="1130" height="60" as="geometry" />
        </mxCell>
        <mxCell id="88MglTr5YMNK4hl9KZ-t-2" value="极简网络" style="rounded=0;whiteSpace=wrap;html=1;fillColor=#b0e3e6;strokeColor=none;" vertex="1" parent="1">
          <mxGeometry y="60" width="90" height="30" as="geometry" />
        </mxCell>
        <mxCell id="88MglTr5YMNK4hl9KZ-t-3" value="PC" style="rounded=0;whiteSpace=wrap;html=1;fillColor=#b0e3e6;strokeColor=none;" vertex="1" parent="1">
          <mxGeometry x="320" y="60" width="90" height="30" as="geometry" />
        </mxCell>
        <mxCell id="88MglTr5YMNK4hl9KZ-t-4" value="小程序" style="rounded=0;whiteSpace=wrap;html=1;fillColor=#b0e3e6;strokeColor=none;" vertex="1" parent="1">
          <mxGeometry x="430" y="60" width="90" height="30" as="geometry" />
        </mxCell>
        <mxCell id="88MglTr5YMNK4hl9KZ-t-5" value="机构平台" style="rounded=0;whiteSpace=wrap;html=1;fillColor=#b0e3e6;strokeColor=none;" vertex="1" parent="1">
          <mxGeometry x="820" y="60" width="100" height="30" as="geometry" />
        </mxCell>
        <mxCell id="88MglTr5YMNK4hl9KZ-t-10" value="" style="rounded=0;whiteSpace=wrap;html=1;fillColor=#f8cecc;strokeColor=none;" vertex="1" parent="1">
          <mxGeometry x="-80" y="150" width="250" height="160" as="geometry" />
        </mxCell>
        <mxCell id="88MglTr5YMNK4hl9KZ-t-27" value="ISV管理平台" style="text;html=1;strokeColor=none;fillColor=none;align=center;verticalAlign=middle;whiteSpace=wrap;rounded=0;" vertex="1" parent="1">
          <mxGeometry y="160" width="90" height="20" as="geometry" />
        </mxCell>
        <mxCell id="88MglTr5YMNK4hl9KZ-t-28" value="" style="rounded=0;whiteSpace=wrap;html=1;fillColor=#f8cecc;strokeColor=none;" vertex="1" parent="1">
          <mxGeometry x="240" y="150" width="370" height="160" as="geometry" />
        </mxCell>
        <mxCell id="88MglTr5YMNK4hl9KZ-t-29" value="开票&lt;span style=&quot;color: rgba(0 , 0 , 0 , 0) ; font-family: monospace ; font-size: 0px&quot;&gt;%3CmxGraphModel%3E%3Croot%3E%3CmxCell%20id%3D%220%22%2F%3E%3CmxCell%20id%3D%221%22%20parent%3D%220%22%2F%3E%3CmxCell%20id%3D%222%22%20value%3D%22%E6%8E%A8%E5%B9%BF%22%20style%3D%22rounded%3D0%3BwhiteSpace%3Dwrap%3Bhtml%3D1%3B%22%20vertex%3D%221%22%20parent%3D%221%22%3E%3CmxGeometry%20x%3D%22-70%22%20y%3D%22190%22%20width%3D%2250%22%20height%3D%2230%22%20as%3D%22geometry%22%2F%3E%3C%2FmxCell%3E%3C%2Froot%3E%3C%2FmxGraphModel%3E&lt;/span&gt;" style="rounded=0;whiteSpace=wrap;html=1;strokeColor=none;fillColor=#b1ddf0;" vertex="1" parent="1">
          <mxGeometry x="250" y="190" width="50" height="30" as="geometry" />
        </mxCell>
        <mxCell id="88MglTr5YMNK4hl9KZ-t-30" value="背书" style="rounded=0;whiteSpace=wrap;html=1;strokeColor=none;fillColor=#b1ddf0;" vertex="1" parent="1">
          <mxGeometry x="310" y="190" width="50" height="30" as="geometry" />
        </mxCell>
        <mxCell id="88MglTr5YMNK4hl9KZ-t-31" value="签收" style="rounded=0;whiteSpace=wrap;html=1;strokeColor=none;fillColor=#b1ddf0;" vertex="1" parent="1">
          <mxGeometry x="370" y="190" width="50" height="30" as="geometry" />
        </mxCell>
        <mxCell id="88MglTr5YMNK4hl9KZ-t-32" value="质押" style="rounded=0;whiteSpace=wrap;html=1;strokeColor=none;fillColor=#b1ddf0;" vertex="1" parent="1">
          <mxGeometry x="430" y="190" width="50" height="30" as="geometry" />
        </mxCell>
        <mxCell id="88MglTr5YMNK4hl9KZ-t-33" value="贴现" style="rounded=0;whiteSpace=wrap;html=1;strokeColor=none;fillColor=#b1ddf0;" vertex="1" parent="1">
          <mxGeometry x="490" y="190" width="50" height="30" as="geometry" />
        </mxCell>
        <mxCell id="88MglTr5YMNK4hl9KZ-t-34" value="托收" style="rounded=0;whiteSpace=wrap;html=1;strokeColor=none;fillColor=#b1ddf0;" vertex="1" parent="1">
          <mxGeometry x="550" y="190" width="50" height="30" as="geometry" />
        </mxCell>
        <mxCell id="88MglTr5YMNK4hl9KZ-t-35" value="客户准入" style="rounded=0;whiteSpace=wrap;html=1;strokeColor=none;fillColor=#b1ddf0;" vertex="1" parent="1">
          <mxGeometry x="250" y="230" width="110" height="30" as="geometry" />
        </mxCell>
        <mxCell id="88MglTr5YMNK4hl9KZ-t-36" value="客户开通" style="rounded=0;whiteSpace=wrap;html=1;strokeColor=none;fillColor=#b1ddf0;" vertex="1" parent="1">
          <mxGeometry x="370" y="230" width="110" height="30" as="geometry" />
        </mxCell>
        <mxCell id="88MglTr5YMNK4hl9KZ-t-37" value="客户管理" style="rounded=0;whiteSpace=wrap;html=1;strokeColor=none;fillColor=#b1ddf0;" vertex="1" parent="1">
          <mxGeometry x="490" y="230" width="110" height="30" as="geometry" />
        </mxCell>
        <mxCell id="88MglTr5YMNK4hl9KZ-t-38" value="优惠券" style="rounded=0;whiteSpace=wrap;html=1;strokeColor=none;fillColor=#b1ddf0;" vertex="1" parent="1">
          <mxGeometry x="250" y="270" width="110" height="30" as="geometry" />
        </mxCell>
        <mxCell id="88MglTr5YMNK4hl9KZ-t-39" value="体验票" style="rounded=0;whiteSpace=wrap;html=1;strokeColor=none;fillColor=#b1ddf0;" vertex="1" parent="1">
          <mxGeometry x="370" y="270" width="110" height="30" as="geometry" />
        </mxCell>
        <mxCell id="88MglTr5YMNK4hl9KZ-t-40" value="红包" style="rounded=0;whiteSpace=wrap;html=1;strokeColor=none;fillColor=#b1ddf0;" vertex="1" parent="1">
          <mxGeometry x="490" y="270" width="110" height="30" as="geometry" />
        </mxCell>
        <mxCell id="88MglTr5YMNK4hl9KZ-t-41" value="" style="rounded=0;whiteSpace=wrap;html=1;fillColor=#f8cecc;strokeColor=none;" vertex="1" parent="1">
          <mxGeometry x="680" y="150" width="370" height="160" as="geometry" />
        </mxCell>
        <mxCell id="88MglTr5YMNK4hl9KZ-t-42" value="转贴现" style="rounded=0;whiteSpace=wrap;html=1;strokeColor=none;fillColor=#b1ddf0;" vertex="1" parent="1">
          <mxGeometry x="690" y="190" width="110" height="30" as="geometry" />
        </mxCell>
        <mxCell id="88MglTr5YMNK4hl9KZ-t-67" value="推广" style="rounded=0;whiteSpace=wrap;html=1;fillColor=#b1ddf0;strokeColor=none;" vertex="1" parent="1">
          <mxGeometry x="-70" y="190" width="50" height="30" as="geometry" />
        </mxCell>
        <mxCell id="88MglTr5YMNK4hl9KZ-t-68" value="营销" style="rounded=0;whiteSpace=wrap;html=1;strokeColor=none;fillColor=#b1ddf0;" vertex="1" parent="1">
          <mxGeometry x="-10" y="190" width="50" height="30" as="geometry" />
        </mxCell>
        <mxCell id="88MglTr5YMNK4hl9KZ-t-69" value="转化" style="rounded=0;whiteSpace=wrap;html=1;strokeColor=none;fillColor=#b1ddf0;" vertex="1" parent="1">
          <mxGeometry x="50" y="190" width="50" height="30" as="geometry" />
        </mxCell>
        <mxCell id="88MglTr5YMNK4hl9KZ-t-70" value="报表" style="rounded=0;whiteSpace=wrap;html=1;strokeColor=none;fillColor=#b1ddf0;" vertex="1" parent="1">
          <mxGeometry x="110" y="190" width="50" height="30" as="geometry" />
        </mxCell>
        <mxCell id="88MglTr5YMNK4hl9KZ-t-71" value="入驻" style="rounded=0;whiteSpace=wrap;html=1;strokeColor=none;fillColor=#b1ddf0;" vertex="1" parent="1">
          <mxGeometry x="-70" y="230" width="50" height="30" as="geometry" />
        </mxCell>
        <mxCell id="88MglTr5YMNK4hl9KZ-t-72" value="评级" style="rounded=0;whiteSpace=wrap;html=1;strokeColor=none;fillColor=#b1ddf0;" vertex="1" parent="1">
          <mxGeometry x="-10" y="230" width="50" height="30" as="geometry" />
        </mxCell>
        <mxCell id="88MglTr5YMNK4hl9KZ-t-73" value="信息" style="rounded=0;whiteSpace=wrap;html=1;strokeColor=none;fillColor=#b1ddf0;" vertex="1" parent="1">
          <mxGeometry x="50" y="230" width="50" height="30" as="geometry" />
        </mxCell>
        <mxCell id="88MglTr5YMNK4hl9KZ-t-74" value="分润" style="rounded=0;whiteSpace=wrap;html=1;strokeColor=none;fillColor=#b1ddf0;" vertex="1" parent="1">
          <mxGeometry x="110" y="230" width="50" height="30" as="geometry" />
        </mxCell>
        <mxCell id="88MglTr5YMNK4hl9KZ-t-75" value="客户归属" style="rounded=0;whiteSpace=wrap;html=1;strokeColor=none;fillColor=#b1ddf0;" vertex="1" parent="1">
          <mxGeometry x="-70" y="270" width="110" height="30" as="geometry" />
        </mxCell>
        <mxCell id="88MglTr5YMNK4hl9KZ-t-76" value="客户推送" style="rounded=0;whiteSpace=wrap;html=1;strokeColor=none;fillColor=#b1ddf0;" vertex="1" parent="1">
          <mxGeometry x="50" y="270" width="110" height="30" as="geometry" />
        </mxCell>
        <mxCell id="88MglTr5YMNK4hl9KZ-t-77" value="撮合交易" style="rounded=0;whiteSpace=wrap;html=1;strokeColor=none;fillColor=#b1ddf0;" vertex="1" parent="1">
          <mxGeometry x="810" y="190" width="110" height="30" as="geometry" />
        </mxCell>
        <mxCell id="88MglTr5YMNK4hl9KZ-t-78" value="平台化" style="rounded=0;whiteSpace=wrap;html=1;strokeColor=none;fillColor=#b1ddf0;" vertex="1" parent="1">
          <mxGeometry x="930" y="190" width="110" height="30" as="geometry" />
        </mxCell>
        <mxCell id="88MglTr5YMNK4hl9KZ-t-79" value="同业信息" style="rounded=0;whiteSpace=wrap;html=1;strokeColor=none;fillColor=#b1ddf0;" vertex="1" parent="1">
          <mxGeometry x="690" y="230" width="110" height="30" as="geometry" />
        </mxCell>
        <mxCell id="88MglTr5YMNK4hl9KZ-t-80" value="操作员" style="rounded=0;whiteSpace=wrap;html=1;strokeColor=none;fillColor=#b1ddf0;" vertex="1" parent="1">
          <mxGeometry x="810" y="230" width="110" height="30" as="geometry" />
        </mxCell>
        <mxCell id="88MglTr5YMNK4hl9KZ-t-81" value="额度" style="rounded=0;whiteSpace=wrap;html=1;strokeColor=none;fillColor=#b1ddf0;" vertex="1" parent="1">
          <mxGeometry x="930" y="230" width="110" height="30" as="geometry" />
        </mxCell>
        <mxCell id="88MglTr5YMNK4hl9KZ-t-82" value="平台化贴现分流" style="rounded=0;whiteSpace=wrap;html=1;strokeColor=none;fillColor=#b1ddf0;" vertex="1" parent="1">
          <mxGeometry x="690" y="270" width="170" height="30" as="geometry" />
        </mxCell>
        <mxCell id="88MglTr5YMNK4hl9KZ-t-83" value="客户分流" style="rounded=0;whiteSpace=wrap;html=1;strokeColor=none;fillColor=#b1ddf0;" vertex="1" parent="1">
          <mxGeometry x="870" y="270" width="170" height="30" as="geometry" />
        </mxCell>
        <mxCell id="88MglTr5YMNK4hl9KZ-t-85" value="" style="rounded=0;whiteSpace=wrap;html=1;fillColor=#f8cecc;strokeColor=none;" vertex="1" parent="1">
          <mxGeometry x="1080" y="150" width="120" height="100" as="geometry" />
        </mxCell>
        <mxCell id="88MglTr5YMNK4hl9KZ-t-86" value="交易操作" style="rounded=0;whiteSpace=wrap;html=1;strokeColor=none;fillColor=#b1ddf0;" vertex="1" parent="1">
          <mxGeometry x="1085" y="190" width="110" height="20" as="geometry" />
        </mxCell>
        <mxCell id="88MglTr5YMNK4hl9KZ-t-87" value="系统操作" style="rounded=0;whiteSpace=wrap;html=1;strokeColor=none;fillColor=#b1ddf0;" vertex="1" parent="1">
          <mxGeometry x="1085" y="220" width="110" height="20" as="geometry" />
        </mxCell>
        <mxCell id="88MglTr5YMNK4hl9KZ-t-88" value="" style="rounded=0;whiteSpace=wrap;html=1;fillColor=#ffe6cc;strokeColor=none;" vertex="1" parent="1">
          <mxGeometry x="240" y="350" width="370" height="180" as="geometry" />
        </mxCell>
        <mxCell id="88MglTr5YMNK4hl9KZ-t-89" value="开票&lt;span style=&quot;color: rgba(0 , 0 , 0 , 0) ; font-family: monospace ; font-size: 0px&quot;&gt;%3CmxGraphModel%3E%3Croot%3E%3CmxCell%20id%3D%220%22%2F%3E%3CmxCell%20id%3D%221%22%20parent%3D%220%22%2F%3E%3CmxCell%20id%3D%222%22%20value%3D%22%E6%8E%A8%E5%B9%BF%22%20style%3D%22rounded%3D0%3BwhiteSpace%3Dwrap%3Bhtml%3D1%3B%22%20vertex%3D%221%22%20parent%3D%221%22%3E%3CmxGeometry%20x%3D%22-70%22%20y%3D%22190%22%20width%3D%2250%22%20height%3D%2230%22%20as%3D%22geometry%22%2F%3E%3C%2FmxCell%3E%3C%2Froot%3E%3C%2FmxGraphModel%3E&lt;/span&gt;" style="rounded=0;whiteSpace=wrap;html=1;strokeColor=none;fillColor=#dae8fc;" vertex="1" parent="1">
          <mxGeometry x="250" y="380" width="50" height="30" as="geometry" />
        </mxCell>
        <mxCell id="88MglTr5YMNK4hl9KZ-t-90" value="背书" style="rounded=0;whiteSpace=wrap;html=1;strokeColor=none;fillColor=#dae8fc;" vertex="1" parent="1">
          <mxGeometry x="310" y="380" width="50" height="30" as="geometry" />
        </mxCell>
        <mxCell id="88MglTr5YMNK4hl9KZ-t-91" value="签收" style="rounded=0;whiteSpace=wrap;html=1;strokeColor=none;fillColor=#dae8fc;" vertex="1" parent="1">
          <mxGeometry x="370" y="380" width="50" height="30" as="geometry" />
        </mxCell>
        <mxCell id="88MglTr5YMNK4hl9KZ-t-92" value="质押" style="rounded=0;whiteSpace=wrap;html=1;fillColor=#dae8fc;strokeColor=none;" vertex="1" parent="1">
          <mxGeometry x="430" y="380" width="50" height="30" as="geometry" />
        </mxCell>
        <mxCell id="88MglTr5YMNK4hl9KZ-t-93" value="贴现" style="rounded=0;whiteSpace=wrap;html=1;strokeColor=none;fillColor=#dae8fc;" vertex="1" parent="1">
          <mxGeometry x="490" y="380" width="50" height="30" as="geometry" />
        </mxCell>
        <mxCell id="88MglTr5YMNK4hl9KZ-t-94" value="托收" style="rounded=0;whiteSpace=wrap;html=1;strokeColor=none;fillColor=#dae8fc;" vertex="1" parent="1">
          <mxGeometry x="550" y="380" width="50" height="30" as="geometry" />
        </mxCell>
        <mxCell id="88MglTr5YMNK4hl9KZ-t-96" value="承兑" style="rounded=0;whiteSpace=wrap;html=1;strokeColor=none;fillColor=#dae8fc;" vertex="1" parent="1">
          <mxGeometry x="250" y="414" width="50" height="30" as="geometry" />
        </mxCell>
        <mxCell id="88MglTr5YMNK4hl9KZ-t-97" value="追索" style="rounded=0;whiteSpace=wrap;html=1;strokeColor=none;fillColor=#dae8fc;" vertex="1" parent="1">
          <mxGeometry x="310" y="414" width="50" height="30" as="geometry" />
        </mxCell>
        <mxCell id="88MglTr5YMNK4hl9KZ-t-98" value="保证" style="rounded=0;whiteSpace=wrap;html=1;strokeColor=none;fillColor=#dae8fc;" vertex="1" parent="1">
          <mxGeometry x="370" y="414" width="50" height="30" as="geometry" />
        </mxCell>
        <mxCell id="88MglTr5YMNK4hl9KZ-t-99" value="会员信息" style="rounded=0;whiteSpace=wrap;html=1;strokeColor=none;fillColor=#dae8fc;" vertex="1" parent="1">
          <mxGeometry x="250" y="448" width="110" height="30" as="geometry" />
        </mxCell>
        <mxCell id="88MglTr5YMNK4hl9KZ-t-100" value="账户信息" style="rounded=0;whiteSpace=wrap;html=1;strokeColor=none;fillColor=#dae8fc;" vertex="1" parent="1">
          <mxGeometry x="370" y="448" width="110" height="30" as="geometry" />
        </mxCell>
        <mxCell id="88MglTr5YMNK4hl9KZ-t-101" value="承兑行信息" style="rounded=0;whiteSpace=wrap;html=1;strokeColor=none;fillColor=#dae8fc;" vertex="1" parent="1">
          <mxGeometry x="490" y="448" width="110" height="30" as="geometry" />
        </mxCell>
        <mxCell id="88MglTr5YMNK4hl9KZ-t-102" value="报文处理" style="rounded=0;whiteSpace=wrap;html=1;strokeColor=none;fillColor=#dae8fc;" vertex="1" parent="1">
          <mxGeometry x="250" y="490" width="350" height="30" as="geometry" />
        </mxCell>
        <mxCell id="88MglTr5YMNK4hl9KZ-t-103" value="" style="rounded=0;whiteSpace=wrap;html=1;fillColor=#ffe6cc;strokeColor=none;" vertex="1" parent="1">
          <mxGeometry x="680" y="350" width="370" height="180" as="geometry" />
        </mxCell>
        <mxCell id="88MglTr5YMNK4hl9KZ-t-104" value="转贴现" style="rounded=0;whiteSpace=wrap;html=1;strokeColor=none;fillColor=#dae8fc;" vertex="1" parent="1">
          <mxGeometry x="690" y="380" width="70" height="30" as="geometry" />
        </mxCell>
        <mxCell id="88MglTr5YMNK4hl9KZ-t-105" value="贴现通" style="rounded=0;whiteSpace=wrap;html=1;strokeColor=none;fillColor=#dae8fc;" vertex="1" parent="1">
          <mxGeometry x="780" y="380" width="70" height="30" as="geometry" />
        </mxCell>
        <mxCell id="88MglTr5YMNK4hl9KZ-t-106" value="回购" style="rounded=0;whiteSpace=wrap;html=1;strokeColor=none;fillColor=#dae8fc;" vertex="1" parent="1">
          <mxGeometry x="870" y="380" width="70" height="30" as="geometry" />
        </mxCell>
        <mxCell id="88MglTr5YMNK4hl9KZ-t-107" value="询价" style="rounded=0;whiteSpace=wrap;html=1;strokeColor=none;fillColor=#dae8fc;" vertex="1" parent="1">
          <mxGeometry x="960" y="380" width="80" height="30" as="geometry" />
        </mxCell>
        <mxCell id="88MglTr5YMNK4hl9KZ-t-108" value="票据查询" style="rounded=0;whiteSpace=wrap;html=1;strokeColor=none;fillColor=#dae8fc;" vertex="1" parent="1">
          <mxGeometry x="690" y="440" width="110" height="30" as="geometry" />
        </mxCell>
        <mxCell id="88MglTr5YMNK4hl9KZ-t-109" value="用户管理" style="rounded=0;whiteSpace=wrap;html=1;strokeColor=none;fillColor=#dae8fc;" vertex="1" parent="1">
          <mxGeometry x="810" y="440" width="110" height="30" as="geometry" />
        </mxCell>
        <mxCell id="88MglTr5YMNK4hl9KZ-t-110" value="报表输出" style="rounded=0;whiteSpace=wrap;html=1;strokeColor=none;fillColor=#dae8fc;" vertex="1" parent="1">
          <mxGeometry x="930" y="440" width="110" height="30" as="geometry" />
        </mxCell>
        <mxCell id="88MglTr5YMNK4hl9KZ-t-111" value="报文处理" style="rounded=0;whiteSpace=wrap;html=1;strokeColor=none;fillColor=#dae8fc;" vertex="1" parent="1">
          <mxGeometry x="690" y="490" width="350" height="30" as="geometry" />
        </mxCell>
        <mxCell id="88MglTr5YMNK4hl9KZ-t-112" value="票交所" style="rounded=0;whiteSpace=wrap;html=1;fillColor=#ffe6cc;strokeColor=none;" vertex="1" parent="1">
          <mxGeometry x="239" y="570" width="811" height="30" as="geometry" />
        </mxCell>
        <mxCell id="88MglTr5YMNK4hl9KZ-t-113" value="" style="rounded=0;whiteSpace=wrap;html=1;fillColor=#f8cecc;strokeColor=none;" vertex="1" parent="1">
          <mxGeometry x="1080" y="410" width="120" height="120" as="geometry" />
        </mxCell>
        <mxCell id="88MglTr5YMNK4hl9KZ-t-114" value="产品管理" style="rounded=0;whiteSpace=wrap;html=1;strokeColor=none;fillColor=#b1ddf0;" vertex="1" parent="1">
          <mxGeometry x="1085" y="470" width="110" height="20" as="geometry" />
        </mxCell>
        <mxCell id="88MglTr5YMNK4hl9KZ-t-115" value="系统管理" style="rounded=0;whiteSpace=wrap;html=1;strokeColor=none;fillColor=#b1ddf0;" vertex="1" parent="1">
          <mxGeometry x="1085" y="500" width="110" height="20" as="geometry" />
        </mxCell>
        <mxCell id="88MglTr5YMNK4hl9KZ-t-116" value="交易操作" style="rounded=0;whiteSpace=wrap;html=1;strokeColor=none;fillColor=#b1ddf0;" vertex="1" parent="1">
          <mxGeometry x="1085" y="440" width="110" height="20" as="geometry" />
        </mxCell>
        <mxCell id="88MglTr5YMNK4hl9KZ-t-117" value="电票业务平台" style="text;html=1;strokeColor=none;fillColor=none;align=center;verticalAlign=middle;whiteSpace=wrap;rounded=0;" vertex="1" parent="1">
          <mxGeometry x="380" y="160" width="90" height="20" as="geometry" />
        </mxCell>
        <mxCell id="88MglTr5YMNK4hl9KZ-t-118" value="同业交易平台" style="text;html=1;strokeColor=none;fillColor=none;align=center;verticalAlign=middle;whiteSpace=wrap;rounded=0;" vertex="1" parent="1">
          <mxGeometry x="820" y="160" width="90" height="20" as="geometry" />
        </mxCell>
        <mxCell id="88MglTr5YMNK4hl9KZ-t-119" value="电票核心系统" style="text;html=1;strokeColor=none;fillColor=none;align=center;verticalAlign=middle;whiteSpace=wrap;rounded=0;" vertex="1" parent="1">
          <mxGeometry x="380" y="350" width="90" height="20" as="geometry" />
        </mxCell>
        <mxCell id="88MglTr5YMNK4hl9KZ-t-120" value="电票直连系统" style="text;html=1;strokeColor=none;fillColor=none;align=center;verticalAlign=middle;whiteSpace=wrap;rounded=0;" vertex="1" parent="1">
          <mxGeometry x="820" y="350" width="90" height="20" as="geometry" />
        </mxCell>
        <mxCell id="88MglTr5YMNK4hl9KZ-t-121" value="同业交易平台后台" style="text;html=1;strokeColor=none;fillColor=none;align=center;verticalAlign=middle;whiteSpace=wrap;rounded=0;" vertex="1" parent="1">
          <mxGeometry x="1087.5" y="160" width="105" height="20" as="geometry" />
        </mxCell>
        <mxCell id="88MglTr5YMNK4hl9KZ-t-122" value="直连系统后台" style="text;html=1;strokeColor=none;fillColor=none;align=center;verticalAlign=middle;whiteSpace=wrap;rounded=0;" vertex="1" parent="1">
          <mxGeometry x="1087.5" y="414" width="105" height="20" as="geometry" />
        </mxCell>
        <mxCell id="88MglTr5YMNK4hl9KZ-t-124" value="" style="rounded=0;whiteSpace=wrap;html=1;fillColor=#d5e8d4;strokeColor=none;" vertex="1" parent="1">
          <mxGeometry x="-80" y="350" width="250" height="110" as="geometry" />
        </mxCell>
        <mxCell id="88MglTr5YMNK4hl9KZ-t-125" value="DRM" style="rounded=0;whiteSpace=wrap;html=1;strokeColor=none;fillColor=#fad7ac;" vertex="1" parent="1">
          <mxGeometry x="-70" y="380" width="70" height="30" as="geometry" />
        </mxCell>
        <mxCell id="88MglTr5YMNK4hl9KZ-t-126" value="消息中间件" style="rounded=0;whiteSpace=wrap;html=1;strokeColor=none;fillColor=#fad7ac;" vertex="1" parent="1">
          <mxGeometry x="10" y="380" width="70" height="30" as="geometry" />
        </mxCell>
        <mxCell id="88MglTr5YMNK4hl9KZ-t-127" value="幂等框架" style="rounded=0;whiteSpace=wrap;html=1;fillColor=#fad7ac;strokeColor=none;" vertex="1" parent="1">
          <mxGeometry x="90" y="380" width="70" height="30" as="geometry" />
        </mxCell>
        <mxCell id="88MglTr5YMNK4hl9KZ-t-128" value="Tair" style="rounded=0;whiteSpace=wrap;html=1;strokeColor=none;fillColor=#fad7ac;" vertex="1" parent="1">
          <mxGeometry x="-70" y="420" width="70" height="30" as="geometry" />
        </mxCell>
        <mxCell id="88MglTr5YMNK4hl9KZ-t-129" value="流程编排" style="rounded=0;whiteSpace=wrap;html=1;strokeColor=none;fillColor=#fad7ac;" vertex="1" parent="1">
          <mxGeometry x="10" y="420" width="70" height="30" as="geometry" />
        </mxCell>
        <mxCell id="88MglTr5YMNK4hl9KZ-t-130" value="..." style="rounded=0;whiteSpace=wrap;html=1;strokeColor=none;fillColor=#fad7ac;" vertex="1" parent="1">
          <mxGeometry x="90" y="420" width="70" height="30" as="geometry" />
        </mxCell>
        <mxCell id="88MglTr5YMNK4hl9KZ-t-131" value="技术组件" style="text;html=1;strokeColor=none;fillColor=none;align=center;verticalAlign=middle;whiteSpace=wrap;rounded=0;" vertex="1" parent="1">
          <mxGeometry y="350" width="90" height="20" as="geometry" />
        </mxCell>
        <mxCell id="88MglTr5YMNK4hl9KZ-t-132" value="" style="rounded=0;whiteSpace=wrap;html=1;fillColor=#e1d5e7;strokeColor=none;" vertex="1" parent="1">
          <mxGeometry x="-80" y="480" width="250" height="120" as="geometry" />
        </mxCell>
        <mxCell id="88MglTr5YMNK4hl9KZ-t-133" value="客户视图" style="rounded=0;whiteSpace=wrap;html=1;strokeColor=none;fillColor=#bac8d3;" vertex="1" parent="1">
          <mxGeometry x="-70" y="515" width="70" height="30" as="geometry" />
        </mxCell>
        <mxCell id="88MglTr5YMNK4hl9KZ-t-134" value="价格中心" style="rounded=0;whiteSpace=wrap;html=1;strokeColor=none;fillColor=#bac8d3;" vertex="1" parent="1">
          <mxGeometry x="10" y="515" width="70" height="30" as="geometry" />
        </mxCell>
        <mxCell id="88MglTr5YMNK4hl9KZ-t-135" value="合约中心" style="rounded=0;whiteSpace=wrap;html=1;fillColor=#bac8d3;strokeColor=none;" vertex="1" parent="1">
          <mxGeometry x="90" y="515" width="70" height="30" as="geometry" />
        </mxCell>
        <mxCell id="88MglTr5YMNK4hl9KZ-t-136" value="支付受理" style="rounded=0;whiteSpace=wrap;html=1;strokeColor=none;fillColor=#bac8d3;" vertex="1" parent="1">
          <mxGeometry x="-70" y="555" width="70" height="30" as="geometry" />
        </mxCell>
        <mxCell id="88MglTr5YMNK4hl9KZ-t-137" value="资产交换" style="rounded=0;whiteSpace=wrap;html=1;strokeColor=none;fillColor=#bac8d3;" vertex="1" parent="1">
          <mxGeometry x="10" y="555" width="70" height="30" as="geometry" />
        </mxCell>
        <mxCell id="88MglTr5YMNK4hl9KZ-t-138" value="..." style="rounded=0;whiteSpace=wrap;html=1;strokeColor=none;fillColor=#bac8d3;" vertex="1" parent="1">
          <mxGeometry x="90" y="555" width="70" height="30" as="geometry" />
        </mxCell>
        <mxCell id="88MglTr5YMNK4hl9KZ-t-139" value="依赖下游" style="text;html=1;strokeColor=none;fillColor=none;align=center;verticalAlign=middle;whiteSpace=wrap;rounded=0;" vertex="1" parent="1">
          <mxGeometry y="480" width="90" height="20" as="geometry" />
        </mxCell>
        <mxCell id="88MglTr5YMNK4hl9KZ-t-141" value="ISV" style="shape=umlActor;verticalLabelPosition=bottom;verticalAlign=top;html=1;outlineConnect=0;" vertex="1" parent="1">
          <mxGeometry x="30" y="-70" width="30" height="60" as="geometry" />
        </mxCell>
        <mxCell id="88MglTr5YMNK4hl9KZ-t-142" value="企业客户" style="shape=umlActor;verticalLabelPosition=bottom;verticalAlign=top;html=1;outlineConnect=0;" vertex="1" parent="1">
          <mxGeometry x="410" y="-60" width="30" height="60" as="geometry" />
        </mxCell>
        <mxCell id="88MglTr5YMNK4hl9KZ-t-143" value="机构交易员" style="shape=umlActor;verticalLabelPosition=bottom;verticalAlign=top;html=1;outlineConnect=0;" vertex="1" parent="1">
          <mxGeometry x="855" y="-60" width="30" height="60" as="geometry" />
        </mxCell>
        <mxCell id="88MglTr5YMNK4hl9KZ-t-147" value="接入层" style="text;html=1;strokeColor=none;fillColor=none;align=center;verticalAlign=middle;whiteSpace=wrap;rounded=0;" vertex="1" parent="1">
          <mxGeometry x="-90" y="60" width="90" height="30" as="geometry" />
        </mxCell>
        <mxCell id="88MglTr5YMNK4hl9KZ-t-148" value="" style="shape=flexArrow;endArrow=classic;html=1;fillColor=#e1d5e7;strokeColor=none;labelBackgroundColor=none;" edge="1" parent="1">
          <mxGeometry width="50" height="50" relative="1" as="geometry">
            <mxPoint x="44.81999999999999" y="20" as="sourcePoint" />
            <mxPoint x="44.41" y="50" as="targetPoint" />
          </mxGeometry>
        </mxCell>
        <mxCell id="88MglTr5YMNK4hl9KZ-t-149" value="" style="shape=flexArrow;endArrow=classic;html=1;fillColor=#e1d5e7;strokeColor=none;labelBackgroundColor=none;" edge="1" parent="1">
          <mxGeometry width="50" height="50" relative="1" as="geometry">
            <mxPoint x="424.8199999999999" y="20" as="sourcePoint" />
            <mxPoint x="424.41" y="50" as="targetPoint" />
          </mxGeometry>
        </mxCell>
        <mxCell id="88MglTr5YMNK4hl9KZ-t-150" value="" style="shape=flexArrow;endArrow=classic;html=1;fillColor=#e1d5e7;strokeColor=none;labelBackgroundColor=none;" edge="1" parent="1">
          <mxGeometry width="50" height="50" relative="1" as="geometry">
            <mxPoint x="869.8199999999997" y="20" as="sourcePoint" />
            <mxPoint x="869.4099999999999" y="50" as="targetPoint" />
          </mxGeometry>
        </mxCell>
        <mxCell id="88MglTr5YMNK4hl9KZ-t-151" value="" style="shape=flexArrow;endArrow=classic;html=1;strokeColor=none;fillColor=#e1d5e7;labelBackgroundColor=none;" edge="1" parent="1">
          <mxGeometry width="50" height="50" relative="1" as="geometry">
            <mxPoint x="44.81999999999985" y="110" as="sourcePoint" />
            <mxPoint x="44.41" y="140" as="targetPoint" />
          </mxGeometry>
        </mxCell>
        <mxCell id="88MglTr5YMNK4hl9KZ-t-152" value="" style="shape=flexArrow;endArrow=classic;html=1;strokeColor=none;fillColor=#e1d5e7;labelBackgroundColor=none;" edge="1" parent="1">
          <mxGeometry width="50" height="50" relative="1" as="geometry">
            <mxPoint x="424.8199999999997" y="110" as="sourcePoint" />
            <mxPoint x="424.40999999999985" y="140" as="targetPoint" />
          </mxGeometry>
        </mxCell>
        <mxCell id="88MglTr5YMNK4hl9KZ-t-153" value="" style="shape=flexArrow;endArrow=classic;html=1;strokeColor=none;fillColor=#e1d5e7;labelBackgroundColor=none;" edge="1" parent="1">
          <mxGeometry width="50" height="50" relative="1" as="geometry">
            <mxPoint x="869.2299999999998" y="110" as="sourcePoint" />
            <mxPoint x="868.8199999999999" y="140" as="targetPoint" />
          </mxGeometry>
        </mxCell>
        <mxCell id="88MglTr5YMNK4hl9KZ-t-154" value="线下运营" style="shape=flexArrow;endArrow=classic;html=1;entryX=0;entryY=0.5;entryDx=0;entryDy=0;exitX=1;exitY=0.5;exitDx=0;exitDy=0;strokeColor=none;fillColor=#e1d5e7;labelBackgroundColor=none;" edge="1" parent="1" source="88MglTr5YMNK4hl9KZ-t-10" target="88MglTr5YMNK4hl9KZ-t-28">
          <mxGeometry width="50" height="50" relative="1" as="geometry">
            <mxPoint x="54.81999999999971" y="120" as="sourcePoint" />
            <mxPoint x="54.409999999999854" y="150" as="targetPoint" />
          </mxGeometry>
        </mxCell>
        <mxCell id="88MglTr5YMNK4hl9KZ-t-157" value="票据、客户" style="shape=flexArrow;endArrow=classic;html=1;entryX=0;entryY=0.5;entryDx=0;entryDy=0;exitX=1;exitY=0.5;exitDx=0;exitDy=0;strokeColor=none;fillColor=#e1d5e7;labelBackgroundColor=none;" edge="1" parent="1">
          <mxGeometry width="50" height="50" relative="1" as="geometry">
            <mxPoint x="609.5" y="230" as="sourcePoint" />
            <mxPoint x="679.5" y="230" as="targetPoint" />
          </mxGeometry>
        </mxCell>
        <mxCell id="88MglTr5YMNK4hl9KZ-t-158" value="" style="shape=flexArrow;endArrow=classic;html=1;strokeColor=none;fillColor=#e1d5e7;labelBackgroundColor=none;" edge="1" parent="1">
          <mxGeometry width="50" height="50" relative="1" as="geometry">
            <mxPoint x="424.5799999999997" y="320" as="sourcePoint" />
            <mxPoint x="424.16999999999985" y="350" as="targetPoint" />
          </mxGeometry>
        </mxCell>
        <mxCell id="88MglTr5YMNK4hl9KZ-t-159" value="" style="shape=flexArrow;endArrow=classic;html=1;strokeColor=none;fillColor=#e1d5e7;labelBackgroundColor=none;" edge="1" parent="1">
          <mxGeometry width="50" height="50" relative="1" as="geometry">
            <mxPoint x="869.5800000000004" y="320" as="sourcePoint" />
            <mxPoint x="869.1700000000001" y="350" as="targetPoint" />
          </mxGeometry>
        </mxCell>
        <mxCell id="88MglTr5YMNK4hl9KZ-t-160" value="" style="shape=flexArrow;endArrow=classic;html=1;startArrow=block;exitX=0.5;exitY=1;exitDx=0;exitDy=0;endWidth=10.344827586206897;endSize=3.8689655172413797;startWidth=10.344827586206897;startSize=3.8689655172413797;fillColor=#e1d5e7;strokeColor=none;labelBackgroundColor=none;" edge="1" parent="1" source="88MglTr5YMNK4hl9KZ-t-88">
          <mxGeometry width="50" height="50" relative="1" as="geometry">
            <mxPoint x="424.5800000000004" y="540" as="sourcePoint" />
            <mxPoint x="424.1700000000001" y="570" as="targetPoint" />
          </mxGeometry>
        </mxCell>
        <mxCell id="88MglTr5YMNK4hl9KZ-t-162" value="" style="shape=flexArrow;endArrow=classic;html=1;startArrow=block;exitX=0.5;exitY=1;exitDx=0;exitDy=0;endWidth=10.344827586206897;endSize=3.8689655172413797;startWidth=10.344827586206897;startSize=3.8689655172413797;fillColor=#e1d5e7;strokeColor=none;labelBackgroundColor=none;" edge="1" parent="1">
          <mxGeometry width="50" height="50" relative="1" as="geometry">
            <mxPoint x="870.8299999999999" y="530" as="sourcePoint" />
            <mxPoint x="870" y="570" as="targetPoint" />
          </mxGeometry>
        </mxCell>
        <mxCell id="88MglTr5YMNK4hl9KZ-t-163" value="网商交易员" style="shape=umlActor;verticalLabelPosition=bottom;verticalAlign=top;html=1;outlineConnect=0;" vertex="1" parent="1">
          <mxGeometry x="1120" y="300" width="30" height="35" as="geometry" />
        </mxCell>
        <mxCell id="88MglTr5YMNK4hl9KZ-t-167" value="" style="shape=flexArrow;endArrow=classic;html=1;fillColor=#e1d5e7;strokeColor=none;labelBackgroundColor=none;" edge="1" parent="1">
          <mxGeometry width="50" height="50" relative="1" as="geometry">
            <mxPoint x="1134.8200000000004" y="369.99999999999955" as="sourcePoint" />
            <mxPoint x="1134.41" y="399.99999999999955" as="targetPoint" />
          </mxGeometry>
        </mxCell>
        <mxCell id="88MglTr5YMNK4hl9KZ-t-168" value="" style="shape=flexArrow;endArrow=none;html=1;startArrow=block;endFill=0;fillColor=#e1d5e7;strokeColor=none;labelBackgroundColor=none;" edge="1" parent="1">
          <mxGeometry width="50" height="50" relative="1" as="geometry">
            <mxPoint x="1134.8200000000006" y="259.99999999999955" as="sourcePoint" />
            <mxPoint x="1134.4099999999999" y="289.99999999999955" as="targetPoint" />
          </mxGeometry>
        </mxCell>
      </root>
    </mxGraphModel>
  </diagram>
</mxfile>
